PathFileType	4	(X/Y/Z)	Patient4_TMGait_0pt4_03_left_02.trc.trc
DataRate	CameraRate	NumFrames	NumMarkers	Units	OrigDataRate	OrigDataStartFrame	OrigNumFrames
75.675675675676	75.675675675676	6	33	mm	75.675675675676	124	       141
Frame#	Time	Sacral			L.Shoulder			Chest			R.Shoulder			Neck			R.ASIS			L.ASIS			R.Thigh.Superior			R.Thigh.Lateral			R.Thigh.Inferior			R.Patella			L.Thigh.Superior			L.Thigh.Lateral			L.Thigh.Inferior			L.Patella			L.Shank.Superior			L.Shank.Lateral			L.Shank.Inferior			R.Shank.Superior			R.Shank.Lateral			R.Shank.Inferior			R.Heel			R.Midfoot.Superior			R.Midfoot.Lateral			R.Toe			L.Heel			L.Midfoot.Lateral			L.Midfoot.Superior			L.Toe			L.Elbow			L.Wrist			R.Elbow			R.Wrist			
		X1	Y1	Z1	X2	Y2	Z2	X3	Y3	Z3	X4	Y4	Z4	X5	Y5	Z5	X6	Y6	Z6	X7	Y7	Z7	X8	Y8	Z8	X9	Y9	Z9	X10	Y10	Z10	X11	Y11	Z11	X12	Y12	Z12	X13	Y13	Z13	X14	Y14	Z14	X15	Y15	Z15	X16	Y16	Z16	X17	Y17	Z17	X18	Y18	Z18	X19	Y19	Z19	X20	Y20	Z20	X21	Y21	Z21	X22	Y22	Z22	X23	Y23	Z23	X24	Y24	Z24	X25	Y25	Z25	X26	Y26	Z26	X27	Y27	Z27	X28	Y28	Z28	X29	Y29	Z29	X30	Y30	Z30	X31	Y31	Z31	X32	Y32	Z32	X33	Y33	Z33	

124	3.775357142857	807.460646171381	1003.180323379055	528.511060924490	947.781140653092	1433.131895787437	336.673728314165	1076.449383384325	1365.721871319024	478.571552064513	1019.762800704299	1433.386229688190	665.371123309854	951.746889058764	1491.520840207216	496.185175175297	1044.465205893533	937.637243803662	622.231254871623	1005.181055029397	957.649419183325	349.126272411284	1036.624850888121	724.597710917160	600.245928815871	930.561056842402	633.127433685610	665.785475968404	988.484451569576	566.428595828515	587.390371701692	969.725422898617	483.480344497195	594.255693924246	1077.357377029609	766.564510727888	369.374225136868	1013.174529348107	638.168194278240	299.860567690249	1120.655615745021	577.622627306679	349.580886424147	1140.318404037187	508.872044752818	347.624144543247	1117.358825310899	435.603655115953	338.585569791760	1034.330536857289	313.795627458205	292.934034702950	1113.315286979285	205.532990968031	341.339237662808	931.459525906499	400.517482034126	600.965192812798	849.757098570326	304.204647091818	662.671675745468	884.445333670114	205.483670455294	599.064125093742	741.667429549955	43.720483048960	564.927866099970	913.054424964321	96.409948090159	603.010012608350	824.154528604470	35.870190016667	639.572921511631	1032.694597077714	42.927170891967	630.088709991075	1014.064353895483	39.646878483339	385.415552609154	1081.376162801967	37.742514750993	299.619114593583	1162.865006200767	104.030767159825	318.225921071848	1289.792749821300	58.911365764595	279.760241863418	817.064199513199	1100.973235356166	253.582954582549	810.397297127520	838.794471891434	258.449038005384	1163.254878679620	1130.789160511072	794.812545867628	1396.649209576909	1206.487609680479	735.105596373961	
125	3.788571428571	807.735668251958	1002.635189370393	524.914695086595	948.673430487792	1432.368198648131	333.065273255830	1076.623893101005	1365.382420399307	475.832998910415	1018.718265627247	1433.214518770833	662.236478839790	951.701795160536	1491.061950617174	492.620802432669	1044.480415982594	937.182304189145	620.124167624937	1006.665472777850	956.963450221111	346.919092100661	1036.788923784418	723.896364211118	598.413864732358	930.302743050811	632.609757052826	663.552013823969	988.405944421612	565.552838413579	585.506766222152	969.417984077959	482.151026401540	592.324060755457	1078.482620242843	764.940770677571	369.023484295818	1013.477803154378	637.293407255174	299.550548996367	1119.733499767054	575.991906092063	350.756565830681	1137.893059734433	506.436798968500	349.159695811665	1114.516380764764	433.120844618870	339.500793730807	1030.432401792785	312.136052396799	293.593485066032	1107.431626036866	203.060400481554	343.158046078068	930.090022194751	399.560271249861	599.276549049541	847.330678483920	304.390086014185	661.424992971009	880.715274176005	205.056137475255	598.221679147174	736.435014527586	44.091822298372	564.865133797830	907.918968423907	96.404544131119	602.898474757804	818.915268643560	35.959747957140	639.485017903592	1027.474213567345	42.608545869648	630.134502934770	1005.355467621250	39.186653382425	386.969825442800	1072.932878297799	36.717625111642	301.287808158378	1155.544205132324	101.283298768277	320.808408136186	1282.150028382493	54.077499533128	282.477203325861	821.387279627933	1098.769992308652	248.401882650950	820.863385840737	836.315949209246	251.402694431325	1157.885085606868	1127.990972296132	792.191911482942	1393.241002960831	1198.865278023966	733.749621513182	
126	3.801785714286	808.000474884557	1002.203657369068	521.224939755941	949.779424828203	1431.733702200854	329.347704943435	1076.865209744936	1365.170341828810	473.112140141695	1017.614074820524	1433.232853937996	659.049840287339	951.725209498978	1490.779250886388	488.940365903144	1044.457715226199	936.877609182719	617.958419867005	1008.117060470348	956.511981177943	344.673378102124	1037.173203304105	723.386154243456	596.399114627362	930.440501176462	632.150175150450	661.157453482004	988.783030036528	564.751379001320	583.445791212604	969.628794820796	480.812410355070	590.264334253059	1079.444177159692	763.502459829990	368.534533501872	1013.830270171353	636.790170158646	298.771048018818	1118.756811428778	574.654669039541	351.560580555182	1135.464829059150	504.422880850196	350.204902259739	1111.824399849211	431.115887238542	339.937479110362	1027.038634136802	310.821658041264	293.553959456850	1102.134090279628	201.093027316124	344.353759832612	929.154479764586	398.607891246224	597.485294650596	845.211512364032	304.703753718842	660.060198592428	877.210072420218	204.709056888389	597.331921880594	731.251336573362	44.718431147096	564.799064378092	902.895927486285	96.444775456415	602.786570516599	813.736161285851	36.153867617990	639.378966428301	1022.312413249905	42.203842490852	630.183581737776	997.633114653082	38.822913734489	387.883894800104	1065.430330594916	36.031619478780	302.291623473255	1148.859964801065	99.265483540057	322.637735887083	1275.260412515803	50.509518883580	284.393883112654	826.577038616739	1096.509337257244	242.914300156957	832.149916666838	833.907034747518	244.067604657522	1151.910292794171	1125.160850977464	789.507365194629	1389.561937648324	1189.833100092384	732.366703692334	
127	3.815000000000	808.260177338760	1001.927114771714	517.480313021428	951.041268280592	1431.277438810861	325.579640276050	1077.151907324990	1365.118914296008	470.424493755894	1016.484418241774	1433.472694331715	655.838085097663	951.796707944808	1490.710001350344	485.188031433679	1044.393091414985	936.765405119032	615.708021116141	1009.475472111739	956.342826364360	342.351643336313	1037.725481036981	723.116348506100	594.198962163766	930.932755397597	631.810226365114	658.638727073141	989.579744697329	564.082595390523	581.255203044590	970.320456455569	479.524028289080	588.163064178761	1080.215758413541	762.361967496874	367.748232241702	1014.198510343246	636.651572279933	297.489635054439	1117.744658953105	573.642467429114	351.829445029664	1133.092270607104	502.882220011156	350.655223988017	1109.322959997824	429.606049843156	339.886256613478	1024.144861471616	309.873229281373	292.865129175750	1097.416424651148	199.645128091460	344.965901110118	928.619701559328	397.721653593504	595.663271805888	843.368715636159	305.203691699060	658.623111415664	873.929801908513	204.506193174309	596.445541075576	726.130068406244	45.681223723344	564.744807635187	898.014591287980	96.550176252054	602.697047587671	808.627987960609	36.494444971079	639.267891932518	1017.212252448013	41.714768695609	630.236467478856	990.887571148054	38.570522915879	388.264752490134	1058.848264184629	35.640565702626	302.733964933953	1142.814361242846	97.940748103497	323.755167946736	1269.107273437422	48.126598092196	285.555050643802	832.678028540515	1094.254192553655	237.151982492026	844.253763945560	831.641409913024	236.515457180952	1145.351914601260	1122.377187454726	786.762380638223	1385.517672732029	1179.419374306407	730.935023320151	
128	3.828214285714	808.525343916236	1001.831846220256	513.693601803027	952.391429638030	1431.035140466152	321.812970009030	1077.457381002176	1365.252739872193	467.777128547815	1015.349522819386	1433.943799940496	652.622756871497	951.886934653696	1490.874207467713	481.402222278203	1044.289745317753	936.874764344072	613.342869417156	1010.709019904133	956.479185599537	339.910886616592	1038.400833820790	723.122358301803	591.827190999458	931.732025310046	631.643231834653	656.038002586437	990.766580608913	563.599656489846	578.995052479567	971.465528231892	478.337089608131	586.119206091479	1080.809373615173	761.587313879679	366.507213659719	1014.516289364921	636.817926884791	295.731231238568	1116.692818000964	572.928080936920	351.456927747485	1130.796808701722	501.794742205365	350.483900458012	1106.998443693624	428.545584650267	339.391991813869	1021.658258433935	309.264068319034	291.653431662690	1093.183397440625	198.668808827649	345.092028938091	928.458698214557	396.956930486830	593.887594215696	841.779473560843	305.943159250835	657.165128493841	870.877552025053	204.507996798871	595.615961673892	721.087361972564	47.059918713825	564.720008184427	893.302481738760	96.740516365508	602.655519652550	803.598041491962	37.027371325353	639.167531036822	1012.168819410824	41.151829755273	630.293264145310	984.979757152443	38.426723085974	388.247184907765	1053.047597777751	35.479847725249	302.751879622254	1137.316630096381	97.204767655374	324.272250539666	1263.575958276937	46.736410938290	286.080407305359	839.698687490850	1092.076405196640	231.144223322485	857.200466551999	829.604583940039	228.817069590415	1138.236610750870	1119.710297781448	783.958501280841	1380.979072552498	1167.669242879580	729.433166590865	
129	3.841428571429	808.807068037104	1001.926781146902	509.852135309310	953.762903245902	1431.025607738999	318.084188566714	1077.752723570072	1365.585959481096	465.166991900265	1014.210490033512	1434.632921937812	649.416303536732	951.963006527183	1491.273109788843	477.608561310880	1044.155789509768	937.217234507452	610.832493328541	1011.816351667609	956.917228527864	337.311542929276	1039.172374021786	723.420772067414	589.309328416198	932.799796370158	631.684632916756	653.395976113174	992.332450001057	563.343397107967	576.726622709627	973.061206346614	477.286077934112	584.228495835903	1081.266514111861	761.185813185278	364.677336036504	1014.677316472061	637.185073040114	293.574604017607	1115.569426422612	572.437002499819	350.407920607950	1128.562418860879	501.086803238762	349.742075456920	1104.792748114579	427.847125740482	338.538827260298	1019.430231093618	308.932692053326	290.089855125178	1089.290200498694	198.074941704328	344.860648267979	928.663887197008	396.355799691116	592.229883238584	840.440138235678	306.966103170252	655.735599761722	868.065056734598	204.766067428447	594.892077522047	716.143273820835	48.930166462198	564.742512216909	888.783837961943	97.033935859483	602.686659525978	798.650415627721	37.801471986231	639.093327121694	1007.168158326781	40.534021241914	630.353232124847	979.698644180041	38.375566279089	387.970258866839	1047.824779655030	35.478468714984	302.490118548821	1132.224283746135	96.916156305039	324.339388056916	1258.499439401028	46.088961618889	286.129831711063	847.609459518796	1090.052481504932	224.915560590564	871.041169722524	827.896091172654	221.039391006838	1130.594061798513	1117.216191622719	781.092929189115	1375.781255728964	1154.642383271163	727.841120214134	
